<svg width="603" height="366" viewBox="0 0 603 366" fill="none" xmlns="http://www.w3.org/2000/svg">
<path d="M365.525 365.385H593.324H602.154L419.673 173.698L543.289 43.8463H375.525L331.376 90.222H434.389L354.922 173.698L501.424 319.734H365.525L298.114 244.808L178.346 365.308L298.114 278.817L365.525 365.385Z" fill="#D1D1D1"/>
<path d="M225.077 0H8.76923H0L181.231 181.231L58.4615 304H225.077L268.923 260.154H166.615L245.538 181.231L116.923 52.6154H225.077L297.923 125L423.846 0L297.923 92.8462L225.077 0Z" fill="#313332"/>
<mask id="path-3-outside-1_2_3" maskUnits="userSpaceOnUse" x="158.615" y="70.0769" width="377" height="237" fill="black">
<rect fill="white" x="158.615" y="70.0769" width="377" height="237"/>
<path d="M222.153 73.0769L298.153 149.077L344.923 102.307H500.187C505.042 102.307 509.461 103.553 513.445 106.043C517.554 108.408 520.854 111.645 523.344 115.754C525.834 119.738 527.078 124.22 527.078 129.2V154.971C527.078 156.59 526.954 158.146 526.705 159.64C526.456 161.01 526.083 162.379 525.585 163.749C527.577 166.363 529.195 169.227 530.44 172.34C531.685 175.328 532.308 178.378 532.308 181.491V209.877C532.308 214.857 531.062 219.401 528.572 223.51C526.082 227.493 522.783 230.73 518.675 233.22C514.691 235.586 510.209 236.769 505.229 236.769H432.846V209.69H503.921C504.294 209.69 504.543 209.628 504.668 209.504C504.917 209.255 505.042 208.943 505.042 208.57V182.984C505.042 182.735 504.917 182.486 504.668 182.237C504.543 181.988 504.294 181.864 503.921 181.864H432.846V154.785H498.692C498.941 154.785 499.191 154.723 499.439 154.598C499.688 154.349 499.812 154.1 499.812 153.851V130.508C499.812 130.134 499.688 129.885 499.439 129.76C499.191 129.512 498.941 129.387 498.692 129.386H373.382L324.461 178.307L450.153 304H391.692L298.153 210.462L266 242.615H207.538L271.846 178.307L166.615 73.0769H222.153Z"/>
</mask>
<path d="M222.153 73.0769L298.153 149.077L344.923 102.307H500.187C505.042 102.307 509.461 103.553 513.445 106.043C517.554 108.408 520.854 111.645 523.344 115.754C525.834 119.738 527.078 124.22 527.078 129.2V154.971C527.078 156.59 526.954 158.146 526.705 159.64C526.456 161.01 526.083 162.379 525.585 163.749C527.577 166.363 529.195 169.227 530.44 172.34C531.685 175.328 532.308 178.378 532.308 181.491V209.877C532.308 214.857 531.062 219.401 528.572 223.51C526.082 227.493 522.783 230.73 518.675 233.22C514.691 235.586 510.209 236.769 505.229 236.769H432.846V209.69H503.921C504.294 209.69 504.543 209.628 504.668 209.504C504.917 209.255 505.042 208.943 505.042 208.57V182.984C505.042 182.735 504.917 182.486 504.668 182.237C504.543 181.988 504.294 181.864 503.921 181.864H432.846V154.785H498.692C498.941 154.785 499.191 154.723 499.439 154.598C499.688 154.349 499.812 154.1 499.812 153.851V130.508C499.812 130.134 499.688 129.885 499.439 129.76C499.191 129.512 498.941 129.387 498.692 129.386H373.382L324.461 178.307L450.153 304H391.692L298.153 210.462L266 242.615H207.538L271.846 178.307L166.615 73.0769H222.153Z" fill="#980000"/>
<path d="M222.153 73.0769L224.275 70.9556L223.396 70.0769H222.153V73.0769ZM298.153 149.077L296.032 151.198L298.153 153.32L300.275 151.198L298.153 149.077ZM344.923 102.307V99.3074H343.68L342.802 100.186L344.923 102.307ZM500.187 102.307L500.187 99.3074H500.187V102.307ZM513.445 106.043L511.855 108.587L511.901 108.616L511.948 108.643L513.445 106.043ZM523.344 115.754L520.778 117.309L520.789 117.326L520.8 117.344L523.344 115.754ZM526.705 159.64L529.657 160.177L529.661 160.155L529.664 160.134L526.705 159.64ZM525.585 163.749L522.766 162.724L522.206 164.264L523.199 165.567L525.585 163.749ZM530.44 172.34L527.655 173.454L527.663 173.474L527.671 173.493L530.44 172.34ZM528.572 223.51L531.116 225.1L531.127 225.082L531.138 225.064L528.572 223.51ZM518.675 233.22L520.206 235.8L520.218 235.793L520.23 235.786L518.675 233.22ZM505.229 236.769V239.769V236.769ZM432.846 236.769H429.846V239.769H432.846V236.769ZM432.846 209.69V206.69H429.846V209.69H432.846ZM504.668 209.504L506.787 211.627L506.789 211.625L504.668 209.504ZM505.042 208.57L508.042 208.571V208.57H505.042ZM505.042 182.984H508.042V182.983L505.042 182.984ZM504.668 182.237L501.986 183.581L502.203 184.015L502.547 184.358L504.668 182.237ZM432.846 181.864H429.846V184.864H432.846V181.864ZM432.846 154.785V151.785H429.846V154.785H432.846ZM498.692 154.785V157.785H498.693L498.692 154.785ZM499.439 154.598L500.781 157.282L501.217 157.064L501.561 156.72L499.439 154.598ZM499.812 153.851L502.812 153.852V153.851H499.812ZM499.439 129.76L497.318 131.882L497.662 132.225L498.096 132.443L499.439 129.76ZM498.692 129.386L498.693 126.386H498.692V129.386ZM373.382 129.386V126.386H372.139L371.261 127.265L373.382 129.386ZM324.461 178.307L322.34 176.186L320.218 178.307L322.34 180.429L324.461 178.307ZM450.153 304V307H457.396L452.275 301.878L450.153 304ZM391.692 304L389.571 306.121L390.45 307H391.692V304ZM298.153 210.462L300.275 208.34L298.153 206.219L296.032 208.34L298.153 210.462ZM266 242.615V245.615H267.243L268.121 244.736L266 242.615ZM207.538 242.615L205.417 240.494L200.295 245.615H207.538V242.615ZM271.846 178.307L273.967 180.429L276.088 178.307L273.967 176.186L271.846 178.307ZM166.615 73.0769V70.0769H159.373L164.494 75.1982L166.615 73.0769ZM222.153 73.0769L220.032 75.1982L296.032 151.198L298.153 149.077L300.275 146.956L224.275 70.9556L222.153 73.0769ZM298.153 149.077L300.275 151.198L347.044 104.429L344.923 102.307L342.802 100.186L296.032 146.956L298.153 149.077ZM344.923 102.307V105.307H500.187V102.307V99.3074H344.923V102.307ZM500.187 102.307L500.186 105.307C504.499 105.307 508.365 106.405 511.855 108.587L513.445 106.043L515.035 103.499C510.558 100.701 505.585 99.3074 500.187 99.3074L500.187 102.307ZM513.445 106.043L511.948 108.643C515.612 110.752 518.547 113.627 520.778 117.309L523.344 115.754L525.909 114.199C523.16 109.663 519.495 106.064 514.942 103.443L513.445 106.043ZM523.344 115.754L520.8 117.344C522.973 120.822 524.078 124.747 524.078 129.2H527.078H530.078C530.078 123.693 528.694 118.654 525.888 114.164L523.344 115.754ZM527.078 129.2H524.078V154.971H527.078H530.078V129.2H527.078ZM527.078 154.971H524.078C524.078 156.436 523.966 157.827 523.746 159.147L526.705 159.64L529.664 160.134C529.942 158.465 530.078 156.743 530.078 154.971H527.078ZM526.705 159.64L523.753 159.104C523.536 160.3 523.208 161.506 522.766 162.724L525.585 163.749L528.404 164.774C528.957 163.253 529.376 161.72 529.657 160.177L526.705 159.64ZM525.585 163.749L523.199 165.567C525.023 167.962 526.509 170.588 527.655 173.454L530.44 172.34L533.226 171.225C531.882 167.866 530.131 164.765 527.971 161.931L525.585 163.749ZM530.44 172.34L527.671 173.493C528.77 176.13 529.308 178.79 529.308 181.491H532.308H535.308C535.308 177.967 534.601 174.525 533.21 171.186L530.44 172.34ZM532.308 181.491H529.308V209.877H532.308H535.308V181.491H532.308ZM532.308 209.877H529.308C529.308 214.329 528.202 218.333 526.007 221.955L528.572 223.51L531.138 225.064C533.923 220.469 535.308 215.384 535.308 209.877H532.308ZM528.572 223.51L526.028 221.92C523.793 225.496 520.836 228.403 517.12 230.655L518.675 233.22L520.23 235.786C524.73 233.058 528.372 229.491 531.116 225.1L528.572 223.51ZM518.675 233.22L517.143 230.641C513.657 232.711 509.711 233.769 505.229 233.769V236.769V239.769C510.706 239.769 515.724 238.461 520.206 235.8L518.675 233.22ZM505.229 236.769V233.769H432.846V236.769V239.769H505.229V236.769ZM432.846 236.769H435.846V209.69H432.846H429.846V236.769H432.846ZM432.846 209.69V212.69H503.921V209.69V206.69H432.846V209.69ZM503.921 209.69V212.69C504.252 212.69 504.672 212.665 505.114 212.554C505.538 212.448 506.203 212.21 506.787 211.627L504.668 209.504L502.549 207.38C503.009 206.922 503.486 206.777 503.661 206.733C503.855 206.685 503.963 206.69 503.921 206.69V209.69ZM504.668 209.504L506.789 211.625C507.636 210.779 508.042 209.689 508.042 208.571L505.042 208.57L502.042 208.569C502.042 208.416 502.069 208.204 502.164 207.967C502.26 207.728 502.399 207.53 502.547 207.382L504.668 209.504ZM505.042 208.57H508.042V182.984H505.042H502.042V208.57H505.042ZM505.042 182.984L508.042 182.983C508.041 181.657 507.363 180.69 506.789 180.116L504.668 182.237L502.547 184.358C502.47 184.282 502.042 183.814 502.042 182.986L505.042 182.984ZM504.668 182.237L507.35 180.893C506.541 179.279 504.976 178.864 503.921 178.864V181.864V184.864C503.794 184.864 503.456 184.845 503.048 184.641C502.592 184.414 502.215 184.038 501.986 183.581L504.668 182.237ZM503.921 181.864V178.864H432.846V181.864V184.864H503.921V181.864ZM432.846 181.864H435.846V154.785H432.846H429.846V181.864H432.846ZM432.846 154.785V157.785H498.692V154.785V151.785H432.846V154.785ZM498.692 154.785L498.693 157.785C499.458 157.785 500.163 157.591 500.781 157.282L499.439 154.598L498.098 151.915C498.218 151.855 498.425 151.785 498.692 151.785L498.692 154.785ZM499.439 154.598L501.561 156.72C502.14 156.141 502.812 155.174 502.812 153.852L499.812 153.851L496.812 153.851C496.813 153.027 497.237 152.558 497.318 152.477L499.439 154.598ZM499.812 153.851H502.812V130.508H499.812H496.812V153.851H499.812ZM499.812 130.508H502.812C502.812 129.453 502.398 127.887 500.783 127.078L499.439 129.76L498.096 132.443C497.639 132.214 497.263 131.836 497.035 131.381C496.831 130.972 496.812 130.634 496.812 130.508H499.812ZM499.439 129.76L501.561 127.639C500.987 127.066 500.02 126.387 498.693 126.386L498.692 129.386L498.692 132.386C497.862 132.386 497.394 131.958 497.318 131.882L499.439 129.76ZM498.692 129.386V126.386H373.382V129.386V132.386H498.692V129.386ZM373.382 129.386L371.261 127.265L322.34 176.186L324.461 178.307L326.582 180.429L375.503 131.508L373.382 129.386ZM324.461 178.307L322.34 180.429L448.032 306.121L450.153 304L452.275 301.878L326.582 176.186L324.461 178.307ZM450.153 304V301H391.692V304V307H450.153V304ZM391.692 304L393.814 301.878L300.275 208.34L298.153 210.462L296.032 212.583L389.571 306.121L391.692 304ZM298.153 210.462L296.032 208.34L263.879 240.494L266 242.615L268.121 244.736L300.275 212.583L298.153 210.462ZM266 242.615V239.615H207.538V242.615V245.615H266V242.615ZM207.538 242.615L209.659 244.736L273.967 180.429L271.846 178.307L269.724 176.186L205.417 240.494L207.538 242.615ZM271.846 178.307L273.967 176.186L168.737 70.9556L166.615 73.0769L164.494 75.1982L269.724 180.429L271.846 178.307ZM166.615 73.0769V76.0769H222.153V73.0769V70.0769H166.615V73.0769Z" fill="white" mask="url(#path-3-outside-1_2_3)"/>
</svg>
