<svg width="210" height="52" viewBox="0 0 210 52" fill="none" xmlns="http://www.w3.org/2000/svg">
<path d="M73.5332 41.572C70.1524 41.572 68.4619 40.0436 68.4619 36.9869V26.219H65.9957C65.8105 26.219 65.6484 26.1611 65.5094 26.0454C65.3936 25.9064 65.3357 25.7443 65.3357 25.5591C65.3357 25.3275 65.44 25.1307 65.6484 24.9686L70.3723 20.3488C70.5808 20.1404 70.7776 20.0362 70.9628 20.0362C71.1481 20.0362 71.2986 20.1056 71.4144 20.2446C71.5533 20.3835 71.6228 20.5456 71.6228 20.7309V23.5097H75.5479C75.9415 23.5097 76.2657 23.637 76.5205 23.8918C76.7752 24.1465 76.9026 24.4707 76.9026 24.8644C76.9026 25.2349 76.7752 25.5591 76.5205 25.8369C76.2657 26.0917 75.9415 26.219 75.5479 26.219H71.6228V36.709C71.6228 37.6122 71.8312 38.1911 72.248 38.4458C72.688 38.6774 73.2322 38.7931 73.8806 38.7931C74.3437 38.7931 74.8069 38.7237 75.27 38.5847C75.3626 38.5616 75.4553 38.5384 75.5479 38.5153C75.6637 38.4921 75.8026 38.4805 75.9647 38.4805C76.2889 38.4805 76.5784 38.6079 76.8331 38.8626C77.0878 39.0942 77.2152 39.3836 77.2152 39.731C77.2152 40.2636 76.9489 40.6688 76.4163 40.9467C75.5131 41.3635 74.5521 41.572 73.5332 41.572Z" fill="#8338EC"/>
<path d="M80.7801 23.4291C80.3744 23.4291 80.0266 23.2842 79.7367 22.9944C79.4469 22.7045 79.302 22.3567 79.302 21.951V21.835C79.302 21.4293 79.4469 21.0815 79.7367 20.7917C80.0266 20.5018 80.3744 20.3569 80.7801 20.3569H80.954C81.3598 20.3569 81.7076 20.5018 81.9974 20.7917C82.2872 21.0815 82.4321 21.4293 82.4321 21.835V21.951C82.4321 22.3567 82.2872 22.7045 81.9974 22.9944C81.7076 23.2842 81.3598 23.4291 80.954 23.4291H80.7801ZM80.8381 41.3695C80.471 41.3695 80.1618 41.2439 79.9106 40.9927C79.6594 40.7416 79.5339 40.4324 79.5339 40.0653V27.6316C79.5339 27.2645 79.6594 26.9554 79.9106 26.7042C80.1618 26.4337 80.471 26.2984 80.8381 26.2984C81.2245 26.2984 81.5433 26.424 81.7945 26.6752C82.0457 26.9264 82.1713 27.2452 82.1713 27.6316V40.0653C82.1713 40.4324 82.036 40.7416 81.7655 40.9927C81.5143 41.2439 81.2052 41.3695 80.8381 41.3695ZM93.0116 41.5144C91.6204 41.5144 90.3355 41.2053 89.1569 40.587C87.9782 39.9687 87.0314 39.0799 86.3165 37.9206C85.6209 36.7612 85.2731 35.399 85.2731 33.834C85.2731 32.2689 85.6209 30.9067 86.3165 29.7474C87.0314 28.5881 87.9782 27.6993 89.1569 27.081C90.3355 26.4626 91.6204 26.1535 93.0116 26.1535C94.0356 26.1535 94.9148 26.2888 95.649 26.5593C96.4026 26.8104 97.0982 27.1389 97.7358 27.5447C98.1222 27.7959 98.3155 28.134 98.3155 28.5591C98.3155 28.8489 98.1995 29.1194 97.9677 29.3706C97.7551 29.6025 97.5039 29.7184 97.2141 29.7184C97.0016 29.7184 96.789 29.6604 96.5765 29.5445C95.9389 29.216 95.3882 28.9842 94.9245 28.8489C94.48 28.6943 93.9197 28.617 93.2434 28.617C91.5818 28.617 90.2775 29.1001 89.3308 30.0662C88.384 31.013 87.9106 32.2689 87.9106 33.834C87.9106 35.399 88.384 36.6646 89.3308 37.6307C90.2775 38.5775 91.5818 39.0509 93.2434 39.0509C93.9197 39.0509 94.48 38.9833 94.9245 38.848C95.3882 38.6934 95.9389 38.4519 96.5765 38.1234C96.789 38.0075 97.0016 37.9495 97.2141 37.9495C97.5039 37.9495 97.7551 38.0751 97.9677 38.3263C98.1995 38.5582 98.3155 38.819 98.3155 39.1089C98.3155 39.5339 98.1222 39.8721 97.7358 40.1233C97.0982 40.529 96.4026 40.8672 95.649 41.1377C94.9148 41.3888 94.0356 41.5144 93.0116 41.5144ZM102.35 41.3695C101.983 41.3695 101.674 41.2439 101.423 40.9927C101.171 40.7416 101.046 40.4324 101.046 40.0653V21.2554C101.046 20.8883 101.171 20.5791 101.423 20.3279C101.674 20.0574 101.983 19.9222 102.35 19.9222C102.717 19.9222 103.026 20.0574 103.277 20.3279C103.548 20.5791 103.683 20.8883 103.683 21.2554V33.1094L110.581 26.7332C110.871 26.482 111.161 26.3564 111.451 26.3564C111.895 26.3564 112.214 26.482 112.407 26.7332C112.62 26.9843 112.726 27.2838 112.726 27.6316C112.726 27.9601 112.562 28.2886 112.233 28.617L108.06 32.3558L113.306 39.3117C113.499 39.5629 113.595 39.8238 113.595 40.0943C113.595 40.4807 113.47 40.7899 113.219 41.0217C112.967 41.2536 112.649 41.3695 112.262 41.3695C112.069 41.3695 111.876 41.3212 111.682 41.2246C111.489 41.128 111.325 40.9927 111.19 40.8188L106.205 34.0368L103.683 36.3265V40.0653C103.683 40.4324 103.548 40.7416 103.277 40.9927C103.026 41.2439 102.717 41.3695 102.35 41.3695ZM122.613 41.5144C120.256 41.5144 118.41 40.8478 117.077 39.5146C115.763 38.1621 115.106 36.2685 115.106 33.834C115.106 32.4621 115.357 31.1965 115.86 30.0372C116.362 28.8779 117.135 27.9408 118.178 27.2259C119.222 26.511 120.507 26.1535 122.033 26.1535C123.463 26.1535 124.7 26.4916 125.743 27.1679C126.786 27.8248 127.579 28.7137 128.12 29.8343C128.661 30.9357 128.931 32.1433 128.931 33.4572C128.931 33.8243 128.806 34.1335 128.554 34.3846C128.322 34.6358 128.004 34.7614 127.598 34.7614H117.773C117.927 36.114 118.43 37.167 119.28 37.9206C120.13 38.6741 121.318 39.0509 122.845 39.0509C123.656 39.0509 124.361 38.9736 124.96 38.819C125.579 38.6645 126.178 38.4423 126.757 38.1524C126.912 38.0751 127.086 38.0365 127.279 38.0365C127.588 38.0365 127.859 38.1428 128.091 38.3553C128.322 38.5678 128.438 38.8384 128.438 39.1668C128.438 39.5919 128.187 39.9494 127.685 40.2392C126.931 40.6643 126.187 40.9831 125.453 41.1956C124.719 41.4082 123.772 41.5144 122.613 41.5144ZM126.323 32.6167C126.265 31.6699 126.014 30.8777 125.569 30.2401C125.144 29.6025 124.613 29.1387 123.975 28.8489C123.337 28.5398 122.69 28.3852 122.033 28.3852C121.376 28.3852 120.729 28.5398 120.091 28.8489C119.454 29.1387 118.922 29.6025 118.497 30.2401C118.072 30.8777 117.831 31.6699 117.773 32.6167H126.323ZM136.942 41.5144C134.121 41.5144 132.711 40.2392 132.711 37.6887V28.704H130.653C130.498 28.704 130.363 28.6557 130.247 28.5591C130.151 28.4431 130.102 28.3079 130.102 28.1533C130.102 27.9601 130.189 27.7959 130.363 27.6606L134.305 23.8059C134.479 23.632 134.643 23.545 134.797 23.545C134.952 23.545 135.078 23.603 135.174 23.7189C135.29 23.8349 135.348 23.9701 135.348 24.1247V26.4433H138.623C138.952 26.4433 139.222 26.5496 139.435 26.7621C139.647 26.9747 139.754 27.2452 139.754 27.5737C139.754 27.8828 139.647 28.1533 139.435 28.3852C139.222 28.5977 138.952 28.704 138.623 28.704H135.348V37.4568C135.348 38.2104 135.522 38.6934 135.87 38.906C136.237 39.0992 136.691 39.1958 137.232 39.1958C137.618 39.1958 138.005 39.1378 138.391 39.0219C138.469 39.0026 138.546 38.9833 138.623 38.9639C138.72 38.9446 138.836 38.935 138.971 38.935C139.242 38.935 139.483 39.0412 139.696 39.2538C139.908 39.447 140.014 39.6885 140.014 39.9783C140.014 40.4227 139.792 40.7609 139.348 40.9927C138.594 41.3405 137.792 41.5144 136.942 41.5144ZM147.11 41.5144C145.178 41.5144 143.42 41.0797 141.836 40.2102C141.507 39.9783 141.343 39.6595 141.343 39.2538C141.343 38.9446 141.449 38.6741 141.662 38.4423C141.874 38.2104 142.145 38.0945 142.473 38.0945C142.647 38.0945 142.821 38.1331 142.995 38.2104C143.613 38.4809 144.231 38.6934 144.85 38.848C145.468 39.0026 146.164 39.0799 146.937 39.0799C149.081 39.0799 150.154 38.3939 150.154 37.0221C150.154 36.5777 149.902 36.2395 149.4 36.0077C148.917 35.7758 148.115 35.515 146.995 35.2251C145.855 34.9546 144.908 34.6745 144.154 34.3846C143.42 34.0948 142.782 33.6601 142.241 33.0804C141.72 32.4814 141.459 31.6989 141.459 30.7328C141.459 29.3803 141.942 28.2789 142.908 27.4287C143.893 26.5786 145.294 26.1535 147.11 26.1535C148.598 26.1535 149.999 26.395 151.313 26.8781C151.583 26.9554 151.786 27.1003 151.922 27.3128C152.076 27.5254 152.153 27.7476 152.153 27.9794C152.153 28.2886 152.038 28.5591 151.806 28.7909C151.593 29.0228 151.323 29.1387 150.994 29.1387C150.898 29.1387 150.772 29.1194 150.617 29.0808C149.497 28.733 148.395 28.5591 147.313 28.5591C146.27 28.5591 145.449 28.7523 144.85 29.1387C144.27 29.5059 143.98 29.9889 143.98 30.5879C143.98 31.1675 144.251 31.5926 144.792 31.8631C145.333 32.1336 146.173 32.3945 147.313 32.6457C148.453 32.9355 149.381 33.2253 150.096 33.5152C150.811 33.7857 151.419 34.2204 151.922 34.8194C152.443 35.4184 152.704 36.2202 152.704 37.225C152.704 38.4616 152.211 39.4856 151.226 40.2972C150.26 41.1087 148.888 41.5144 147.11 41.5144Z" fill="#3A86FF"/>
<path d="M183.01 41.7995C181.948 41.7995 181.021 41.5484 180.229 41.0463C179.457 40.5441 178.858 39.8585 178.433 38.9894C178.028 38.1204 177.825 37.1644 177.825 36.1215V27.8942C177.825 27.5273 177.95 27.2183 178.201 26.9672C178.472 26.7161 178.791 26.5906 179.157 26.5906C179.524 26.5906 179.833 26.7161 180.084 26.9672C180.336 27.2183 180.461 27.5273 180.461 27.8942V35.8318C180.461 38.188 181.523 39.366 183.648 39.366C184.613 39.366 185.473 39.115 186.226 38.6128C186.998 38.1107 187.723 37.4348 188.399 36.585V27.8942C188.399 27.5273 188.524 27.2183 188.775 26.9672C189.046 26.7161 189.364 26.5906 189.731 26.5906C190.098 26.5906 190.407 26.7161 190.658 26.9672C190.909 27.2183 191.035 27.5273 191.035 27.8942V40.322C191.035 40.689 190.909 41.0076 190.658 41.278C190.407 41.5291 190.098 41.6546 189.731 41.6546C189.364 41.6546 189.046 41.5291 188.775 41.278C188.524 41.0076 188.399 40.689 188.399 40.322V39.1343C187.665 39.9454 186.873 40.5924 186.023 41.0752C185.173 41.558 184.169 41.7995 183.01 41.7995ZM201.648 41.7995C199.292 41.7995 197.448 41.1332 196.115 39.8006C194.802 38.4487 194.145 36.556 194.145 34.1226C194.145 32.7514 194.397 31.4864 194.899 30.3276C195.401 29.1689 196.173 28.2322 197.216 27.5176C198.259 26.803 199.543 26.4457 201.069 26.4457C202.498 26.4457 203.734 26.7837 204.777 27.4597C205.82 28.1163 206.612 29.0047 207.153 30.1248C207.693 31.2257 207.964 32.4327 207.964 33.746C207.964 34.1129 207.838 34.422 207.587 34.673C207.355 34.9241 207.037 35.0496 206.631 35.0496H196.811C196.965 36.4015 197.467 37.4541 198.317 38.2073C199.167 38.9605 200.355 39.3371 201.88 39.3371C202.691 39.3371 203.396 39.2598 203.995 39.1053C204.613 38.9508 205.212 38.7287 205.791 38.439C205.946 38.3618 206.119 38.3231 206.313 38.3231C206.622 38.3231 206.892 38.4294 207.124 38.6418C207.355 38.8542 207.471 39.1246 207.471 39.4529C207.471 39.8778 207.22 40.2351 206.718 40.5248C205.965 40.9497 205.221 41.2684 204.487 41.4808C203.754 41.6932 202.807 41.7995 201.648 41.7995ZM205.357 32.9059C205.299 31.9596 205.048 31.1677 204.603 30.5304C204.178 29.8931 203.647 29.4296 203.01 29.1399C202.373 28.8309 201.726 28.6764 201.069 28.6764C200.412 28.6764 199.765 28.8309 199.128 29.1399C198.491 29.4296 197.96 29.8931 197.535 30.5304C197.11 31.1677 196.869 31.9596 196.811 32.9059H205.357Z" fill="#3A86FF"/>
<g clip-path="url(#clip0_2438_5679)">
<path d="M17.5845 12.6612C19.521 12.6612 21.0909 11.0913 21.0909 9.15481C21.0909 7.21829 19.521 5.64844 17.5845 5.64844C15.648 5.64844 14.0781 7.21829 14.0781 9.15481C14.0781 11.0913 15.648 12.6612 17.5845 12.6612Z" fill="#8338EC"/>
<path d="M26.4485 11.7877C27.9022 11.7877 29.0806 10.6092 29.0806 9.15555C29.0806 7.70187 27.9022 6.52344 26.4485 6.52344C24.9948 6.52344 23.8164 7.70187 23.8164 9.15555C23.8164 10.6092 24.9948 11.7877 26.4485 11.7877Z" fill="#3A86FF"/>
<path d="M2.24654 11.4013C3.48727 11.4013 4.49309 10.3955 4.49309 9.15475C4.49309 7.91401 3.48727 6.9082 2.24654 6.9082C1.00581 6.9082 0 7.91401 0 9.15475C0 10.3955 1.00581 11.4013 2.24654 11.4013Z" fill="#3A86FF"/>
<path d="M61.1607 51.8799C63.0972 51.8799 64.667 50.3101 64.667 48.3736C64.667 46.437 63.0972 44.8672 61.1607 44.8672C59.2242 44.8672 57.6543 46.437 57.6543 48.3736C57.6543 50.3101 59.2242 51.8799 61.1607 51.8799Z" fill="#8338EC"/>
<path d="M39.3716 15.3154C29.2748 15.3154 21.0898 23.5004 21.0898 33.5971C21.0898 33.6204 21.0898 33.6438 21.0898 33.6671H21.0603V35.4711C21.0243 36.6698 20.5229 37.8074 19.6622 38.6427C18.8015 39.4779 17.6494 39.945 16.4501 39.945C15.2508 39.945 14.0986 39.4779 13.238 38.6427C12.3773 37.8074 11.8758 36.6698 11.8399 35.4711V0H6.4917V35.7472C6.49163 37.0188 6.74203 38.278 7.22861 39.4527C7.71519 40.6275 8.42841 41.695 9.32754 42.5941C10.2267 43.4932 11.2941 44.2065 12.4689 44.693C13.6437 45.1796 14.9028 45.43 16.1744 45.4299C18.8742 45.4333 21.4654 44.3666 23.3804 42.4636C26.5007 48.0791 32.4925 51.8793 39.3721 51.8793C49.4693 51.8793 57.6538 43.6939 57.6538 33.5971C57.6538 23.5004 49.4693 15.3154 39.3716 15.3154ZM39.3716 46.5302C32.2287 46.5302 26.439 40.7399 26.439 33.5971C26.439 26.4543 32.2287 20.6641 39.3716 20.6641C46.5144 20.6641 52.3051 26.4543 52.3051 33.5971C52.3051 40.7399 46.5154 46.5302 39.3716 46.5302Z" fill="url(#paint0_linear_2438_5679)"/>
</g>
<path d="M174.827 33.835C174.827 39.1839 170.494 43.5197 165.148 43.52H165.111V43.5356H164.156C163.83 43.5258 163.504 43.5817 163.2 43.7001C162.895 43.8184 162.617 43.9967 162.383 44.2245C162.148 44.4522 161.962 44.7248 161.834 45.026C161.707 45.3272 161.641 45.6509 161.641 45.9779C161.641 46.305 161.707 46.6287 161.834 46.9299C161.962 47.2311 162.148 47.5036 162.383 47.7314C162.617 47.9591 162.895 48.1374 163.2 48.2558C163.504 48.3741 163.83 48.43 164.156 48.4202H200.954C201.33 48.4202 201.69 48.5695 201.956 48.8352C202.221 49.1009 202.37 49.4613 202.37 49.8371C202.37 50.2129 202.221 50.5733 201.956 50.839C201.69 51.1047 201.33 51.254 200.954 51.254H164.011C163.337 51.2541 162.671 51.1214 162.049 50.8636C161.427 50.6059 160.862 50.228 160.386 49.7517C159.91 49.2754 159.532 48.7099 159.275 48.0875C159.017 47.4652 158.885 46.7981 158.885 46.1245C158.883 44.6943 159.447 43.3216 160.455 42.3071C157.482 40.6541 155.47 37.4798 155.47 33.8353C155.47 28.4862 159.805 24.1504 165.149 24.1504C170.49 24.1498 174.827 28.4903 174.827 33.835ZM158.302 33.835C158.302 37.619 161.367 40.6862 165.148 40.6862C168.93 40.6862 171.995 37.6187 171.995 33.8348C171.995 30.0508 168.93 26.982 165.149 26.982C161.367 26.982 158.302 30.0508 158.302 33.835H158.302Z" fill="#8338EC"/>
<circle cx="205.522" cy="49.9957" r="1.37651" fill="#3A86FF"/>
<defs>
<linearGradient id="paint0_linear_2438_5679" x1="9.32799" y1="9.76871" x2="79.1859" y2="80.7149" gradientUnits="userSpaceOnUse">
<stop stop-color="#8338EC"/>
<stop stop-color="#8338EC"/>
<stop offset="0.324162" stop-color="#8338EC"/>
<stop offset="0.634479" stop-color="#3A86FF"/>
</linearGradient>
<clipPath id="clip0_2438_5679">
<rect width="64.6673" height="51.8793" fill="white"/>
</clipPath>
</defs>
</svg>
