<svg width="14" height="14" viewBox="0 0 14 14" fill="none" xmlns="http://www.w3.org/2000/svg">
<path d="M6.99998 13.6654C3.31798 13.6654 0.333313 10.6807 0.333313 6.9987C0.333313 3.3167 3.31798 0.332031 6.99998 0.332031C10.682 0.332031 13.6666 3.3167 13.6666 6.9987C13.6666 10.6807 10.682 13.6654 6.99998 13.6654ZM6.99998 12.332C8.41447 12.332 9.77102 11.7701 10.7712 10.7699C11.7714 9.76974 12.3333 8.41319 12.3333 6.9987C12.3333 5.58421 11.7714 4.22766 10.7712 3.22746C9.77102 2.22727 8.41447 1.66536 6.99998 1.66536C5.58549 1.66536 4.22894 2.22727 3.22874 3.22746C2.22855 4.22766 1.66665 5.58421 1.66665 6.9987C1.66665 8.41319 2.22855 9.76974 3.22874 10.7699C4.22894 11.7701 5.58549 12.332 6.99998 12.332ZM6.99998 5.66536C7.17679 5.66536 7.34636 5.7356 7.47138 5.86063C7.59641 5.98565 7.66665 6.15522 7.66665 6.33203V9.66536C7.66665 9.84218 7.59641 10.0117 7.47138 10.1368C7.34636 10.2618 7.17679 10.332 6.99998 10.332C6.82317 10.332 6.6536 10.2618 6.52857 10.1368C6.40355 10.0117 6.33331 9.84218 6.33331 9.66536V6.33203C6.33331 6.15522 6.40355 5.98565 6.52857 5.86063C6.6536 5.7356 6.82317 5.66536 6.99998 5.66536ZM6.99998 4.9987C6.82317 4.9987 6.6536 4.92846 6.52857 4.80344C6.40355 4.67841 6.33331 4.50884 6.33331 4.33203C6.33331 4.15522 6.40355 3.98565 6.52857 3.86063C6.6536 3.7356 6.82317 3.66536 6.99998 3.66536C7.17679 3.66536 7.34636 3.7356 7.47138 3.86063C7.59641 3.98565 7.66665 4.15522 7.66665 4.33203C7.66665 4.50884 7.59641 4.67841 7.47138 4.80344C7.34636 4.92846 7.17679 4.9987 6.99998 4.9987Z" fill="#0276E5"/>
</svg>
