<svg width="15" height="15" viewBox="0 0 15 15" fill="none" xmlns="http://www.w3.org/2000/svg">
<path d="M10.4179 9.16787H9.75953L9.5262 8.94287C10.047 8.33784 10.4276 7.62518 10.6408 6.85588C10.854 6.08658 10.8946 5.27966 10.7595 4.49287C10.3679 2.1762 8.43453 0.3262 6.1012 0.0428664C5.28088 -0.0609122 4.44769 0.0243427 3.66539 0.292107C2.88308 0.559872 2.1724 1.00305 1.58773 1.58773C1.00305 2.1724 0.559872 2.88308 0.292107 3.66539C0.0243427 4.44769 -0.0609122 5.28088 0.0428664 6.1012C0.3262 8.43453 2.1762 10.3679 4.49287 10.7595C5.27966 10.8946 6.08658 10.854 6.85588 10.6408C7.62518 10.4276 8.33784 10.047 8.94287 9.5262L9.16787 9.75953V10.4179L12.7095 13.9595C13.0512 14.3012 13.6095 14.3012 13.9512 13.9595C14.2929 13.6179 14.2929 13.0595 13.9512 12.7179L10.4179 9.16787ZM5.41787 9.16787C3.34287 9.16787 1.66787 7.49287 1.66787 5.41787C1.66787 3.34287 3.34287 1.66787 5.41787 1.66787C7.49287 1.66787 9.16787 3.34287 9.16787 5.41787C9.16787 7.49287 7.49287 9.16787 5.41787 9.16787Z" fill="#0276E5"/>
</svg>
