<svg width="65" height="52" viewBox="0 0 65 52" fill="none" xmlns="http://www.w3.org/2000/svg">
<g clip-path="url(#clip0_41_2840)">
<path d="M17.5845 12.6612C19.521 12.6612 21.0909 11.0913 21.0909 9.15481C21.0909 7.21829 19.521 5.64844 17.5845 5.64844C15.648 5.64844 14.0781 7.21829 14.0781 9.15481C14.0781 11.0913 15.648 12.6612 17.5845 12.6612Z" fill="#8338EC"/>
<path d="M26.4485 11.7877C27.9022 11.7877 29.0806 10.6092 29.0806 9.15555C29.0806 7.70187 27.9022 6.52344 26.4485 6.52344C24.9948 6.52344 23.8164 7.70187 23.8164 9.15555C23.8164 10.6092 24.9948 11.7877 26.4485 11.7877Z" fill="#3A86FF"/>
<path d="M2.24654 11.4013C3.48727 11.4013 4.49309 10.3955 4.49309 9.15475C4.49309 7.91401 3.48727 6.9082 2.24654 6.9082C1.00581 6.9082 0 7.91401 0 9.15475C0 10.3955 1.00581 11.4013 2.24654 11.4013Z" fill="#3A86FF"/>
<path d="M61.1607 51.8799C63.0972 51.8799 64.667 50.3101 64.667 48.3736C64.667 46.437 63.0972 44.8672 61.1607 44.8672C59.2242 44.8672 57.6543 46.437 57.6543 48.3736C57.6543 50.3101 59.2242 51.8799 61.1607 51.8799Z" fill="#8338EC"/>
<path d="M39.3716 15.3154C29.2748 15.3154 21.0898 23.5004 21.0898 33.5971C21.0898 33.6204 21.0898 33.6438 21.0898 33.6671H21.0603V35.4711C21.0243 36.6698 20.5229 37.8074 19.6622 38.6427C18.8015 39.4779 17.6494 39.945 16.4501 39.945C15.2508 39.945 14.0986 39.4779 13.238 38.6427C12.3773 37.8074 11.8758 36.6698 11.8399 35.4711V0H6.4917V35.7472C6.49163 37.0188 6.74203 38.278 7.22861 39.4527C7.71519 40.6275 8.42841 41.695 9.32754 42.5941C10.2267 43.4932 11.2941 44.2065 12.4689 44.693C13.6437 45.1796 14.9028 45.43 16.1744 45.4299C18.8742 45.4333 21.4654 44.3666 23.3804 42.4636C26.5007 48.0791 32.4925 51.8793 39.3721 51.8793C49.4693 51.8793 57.6538 43.6939 57.6538 33.5971C57.6538 23.5004 49.4693 15.3154 39.3716 15.3154ZM39.3716 46.5302C32.2287 46.5302 26.439 40.7399 26.439 33.5971C26.439 26.4543 32.2287 20.6641 39.3716 20.6641C46.5144 20.6641 52.3051 26.4543 52.3051 33.5971C52.3051 40.7399 46.5154 46.5302 39.3716 46.5302Z" fill="url(#paint0_linear_41_2840)"/>
</g>
<defs>
<linearGradient id="paint0_linear_41_2840" x1="9.32799" y1="9.76871" x2="79.1859" y2="80.7149" gradientUnits="userSpaceOnUse">
<stop stop-color="#8338EC"/>
<stop stop-color="#8338EC"/>
<stop offset="0.324162" stop-color="#8338EC"/>
<stop offset="0.634479" stop-color="#3A86FF"/>
</linearGradient>
<clipPath id="clip0_41_2840">
<rect width="64.6673" height="51.8793" fill="white"/>
</clipPath>
</defs>
</svg>
